<svg xmlns="http://www.w3.org/2000/svg" xmlns:xlink="http://www.w3.org/1999/xlink" viewBox="0 0 191.7 32.19"><defs><style>.cls-1{fill:#141414;}.cls-2{fill:none;stroke-miterlimit:10;stroke-width:2px;stroke:url(#linear-gradient);}</style><linearGradient id="linear-gradient" x1="24.33" y1="33.7" x2="22.2" y2="-0.24" gradientUnits="userSpaceOnUse"><stop offset="0" stop-color="#399"/><stop offset="0.2" stop-color="#208aa6"/><stop offset="0.51" stop-color="#0978b6"/><stop offset="0.71" stop-color="#0071bc"/></linearGradient></defs><g id="Layer_2" data-name="Layer 2"><g id="Layer_2-2" data-name="Layer 2"><path class="cls-1" d="M50.18,9.21H57c4.09,0,5.91,2.26,5.91,5.34S61.07,19.91,57,19.91H52.71v5.54H50.18ZM57,17.58c2.43,0,3.3-1.29,3.3-3s-.87-3-3.3-3H52.71v6Z"/><path class="cls-1" d="M64.13,19.32a6.6,6.6,0,0,1,13.2,0,6.6,6.6,0,0,1-13.2,0Zm10.82,0a4.22,4.22,0,1,0-8.44,0,4.22,4.22,0,1,0,8.44,0Z"/><path class="cls-1" d="M79.72,7.82h2.36V25.45H79.72Z"/><path class="cls-1" d="M84.46,19.41a6.32,6.32,0,0,1,6.63-6.55,6.22,6.22,0,0,1,6.53,6.55v6H95.46V22.77a4.9,4.9,0,0,1-4.77,3A6.11,6.11,0,0,1,84.46,19.41Zm10.82-.09a4.22,4.22,0,1,0-8.44,0,4.22,4.22,0,1,0,8.44,0Z"/><path class="cls-1" d="M100.05,18.22c0-3.62,2.13-5.36,5.29-5.36s5.26,1.74,5.26,5.39v.12h-2.33v-.15c0-2.26-1.2-3.17-2.93-3.17s-2.93.91-2.93,3.17v7.23h-2.36Z"/><path class="cls-1" d="M111.81,20.81h2.51c.05,1.58,1.27,2.63,3.48,2.63s3.52-1.05,3.52-2.63-1.73-2-3.7-2.34c-2.53-.44-5.43-.94-5.43-4.59,0-3,2.23-5,5.63-5s5.56,1.94,5.66,4.84h-2.41c-.07-1.44-1.19-2.51-3.2-2.51s-3.25,1.1-3.25,2.58c0,1.72,1.76,2,3.72,2.34,2.56.44,5.47.94,5.47,4.59,0,3.1-2.39,5-6,5S111.89,23.88,111.81,20.81Z"/><path class="cls-1" d="M125.87,9.58a1.64,1.64,0,0,1,3.27,0,1.64,1.64,0,1,1-3.27,0Zm.47,3.6h2.36V25.45h-2.36Z"/><path class="cls-1" d="M131.5,26.91h2.41c.57,1.42,2,2,3.8,2,2.5,0,4.17-1.19,4.17-4.4V23.14a5,5,0,0,1-4.62,2.53,6,6,0,0,1-6.21-6.35,6.3,6.3,0,0,1,6.61-6.46,6.21,6.21,0,0,1,6.55,6.55v5c0,4.72-2.88,6.56-6.5,6.56C134.7,31,132.34,29.74,131.5,26.91Zm10.38-7.59a4.22,4.22,0,1,0-8.44,0,4.22,4.22,0,0,0,8.44,0Z"/><path class="cls-1" d="M146.64,19.07c0-4.1,2.44-6.21,6.06-6.21s6.06,2.09,6.06,6.21v6.38H156.4V19.07c0-2.66-1.46-4-3.7-4s-3.7,1.36-3.7,4v6.38h-2.36Z"/><path class="cls-1" d="M160.69,19.41a6.32,6.32,0,0,1,6.63-6.55,6.22,6.22,0,0,1,6.53,6.55v6h-2.16V22.77a4.9,4.9,0,0,1-4.77,3A6.11,6.11,0,0,1,160.69,19.41Zm10.83-.09a4.22,4.22,0,1,0-8.44,0,4.22,4.22,0,1,0,8.44,0Z"/><path class="cls-1" d="M176.73,7.82h2.36V25.45h-2.36Z"/><path class="cls-1" d="M181.52,21.9h2.38c0,1,1,1.74,2.71,1.74s2.71-.77,2.71-1.74c0-1.17-1.29-1.32-2.83-1.52-2.14-.27-4.72-.67-4.72-3.47,0-2.41,1.89-4.05,4.82-4.05s4.74,1.66,4.79,3.77H189c-.07-.94-.94-1.63-2.43-1.63s-2.46.74-2.46,1.71c0,1.17,1.29,1.29,2.81,1.49,2.13.27,4.74.67,4.74,3.47,0,2.49-2,4.1-5.09,4.1S181.59,24.13,181.52,21.9Z"/><polyline class="cls-2" points="48.35 31.19 1.73 31.19 18.45 2.01 32.94 27.11 8.83 27.14 18.45 10.05 25.88 22.77 18.45 22.77"/></g></g></svg>