<svg width="600" height="600" viewBox="0 0 600 600" fill="none" xmlns="http://www.w3.org/2000/svg">
<rect width="600" height="600" fill="black"/>
<path d="M50.2526 273.016C50.2526 243.873 70.1137 224.805 97.4872 224.805C125.553 224.805 145.246 244.937 145.246 272.833C145.246 300.73 125.394 320.133 99.4518 320.133C82.6123 320.133 68.8601 312.061 62.2366 298.314V356.427H50.2526V273.016ZM133.084 272.469C133.084 251.571 118.77 236.175 97.6649 236.175C76.3724 236.175 62.2366 251.571 62.2366 272.469C62.2366 293.368 76.3724 308.764 97.7117 308.764C118.77 308.764 133.084 293.368 133.084 272.469Z" fill="white"/>
<path d="M155.621 273.016C155.621 244.783 175.267 224.805 203.201 224.805C231.136 224.805 250.614 244.419 250.614 273.016V317.746H239.518V295.381C233.26 311.515 218.591 320.133 201.414 320.133C176.548 320.133 155.621 301.986 155.621 273.016ZM238.63 272.469C238.63 251.571 224.316 236.175 203.201 236.175C182.087 236.175 167.782 251.571 167.782 272.469C167.782 293.368 182.096 308.764 203.201 308.764C224.307 308.764 238.63 293.368 238.63 272.469Z" fill="white"/>
<path d="M268.136 263.487C268.136 237.459 283.348 224.805 305.351 224.805C327.355 224.805 342.379 237.459 342.379 263.669V264.771H330.573V263.487C330.573 244.601 320.376 236.175 305.314 236.175C290.102 236.175 280.055 244.601 280.055 263.487V317.746H268.136V263.487Z" fill="white"/>
<path d="M350.602 272.469C350.602 244.975 370.248 224.805 398.193 224.805C421.094 224.805 438.42 238.37 443.631 258.54H431.469C426.632 244.975 414.293 236.175 398.193 236.175C377.078 236.175 362.774 251.571 362.774 272.469C362.774 293.368 377.078 308.764 398.193 308.764C414.293 308.764 426.632 299.963 431.469 286.398H443.631C438.439 306.53 421.094 320.133 398.193 320.133C370.286 320.133 350.602 299.963 350.602 272.469Z" fill="white"/>
<path d="M454.361 273.016C454.361 244.783 474.007 224.805 501.942 224.805C529.877 224.805 549.354 244.419 549.354 273.016V317.746H538.259V295.381C532 311.515 517.331 320.133 500.155 320.133C475.289 320.133 454.361 301.986 454.361 273.016ZM537.361 272.469C537.361 251.571 523.057 236.175 501.942 236.175C480.827 236.175 466.523 251.571 466.523 272.469C466.523 293.368 480.837 308.764 501.942 308.764C523.048 308.764 537.408 293.368 537.408 272.469H537.361Z" fill="white"/>
</svg>
